<?xml version="1.0" encoding="UTF-8"?>
<!DOCTYPE svg PUBLIC "-//W3C//DTD SVG 1.1//EN" "http://www.w3.org/Graphics/SVG/1.1/DTD/svg11.dtd">
<!-- Creator: CorelDRAW -->
<svg xmlns="http://www.w3.org/2000/svg" xml:space="preserve" width="447px" height="90px" version="1.1" style="shape-rendering:geometricPrecision; text-rendering:geometricPrecision; image-rendering:optimizeQuality; fill-rule:evenodd; clip-rule:evenodd"
viewBox="0 0 261 52.5"
 xmlns:xlink="http://www.w3.org/1999/xlink"
 xmlns:xodm="http://www.corel.com/coreldraw/odm/2003">
 <defs>
  <style type="text/css">
   <![CDATA[
    .fil0 {fill:#2E2E2E}
   ]]>
  </style>
 </defs>
 <g id="Layer_x0020_1">
  <metadata id="CorelCorpID_0Corel-Layer"/>
  <path class="fil0" d="M213.99 7.25c0,1.13 -0.43,2.12 -1.28,2.94 -0.85,0.81 -1.84,1.22 -3,1.22 -1.23,0 -2.27,-0.41 -3.1,-1.22 -0.83,-0.82 -1.25,-1.81 -1.25,-2.94 0,-1.1 0.42,-2.07 1.25,-2.88 0.83,-0.81 1.87,-1.23 3.1,-1.23 0.8,0 1.53,0.19 2.17,0.56 0.66,0.38 1.17,0.87 1.54,1.46 0.38,0.61 0.57,1.31 0.57,2.09zm-65.07 30.47l-0.4 0.58c-0.92,1.33 -2.06,2.5 -3.44,3.52 -1.38,1.02 -2.85,1.53 -4.43,1.53 -1.37,0 -2.45,-0.38 -3.25,-1.13 -0.79,-0.77 -1.19,-1.76 -1.19,-3 0,-0.97 0.23,-2.28 0.69,-3.94l2.03 -7.59c0.58,-2.05 0.87,-3.47 0.87,-4.26 0,-0.46 -0.13,-0.88 -0.38,-1.26 -0.26,-0.37 -0.6,-0.56 -1.05,-0.56 -0.99,0 -2.22,0.96 -3.67,2.86 -1.45,1.92 -2.92,4.5 -4.41,7.76 -1.49,3.26 -2.79,6.82 -3.89,10.68l-6.62 0 5.04 -18.47c0.19,-0.77 1.55,-4.21 -0.14,-4.37 -0.72,0 -1.41,0.51 -2.08,1.54 -1.67,2.62 -1.97,6.86 -1.97,9.98 0,10.56 -5.56,15.45 -9.89,18 -3.48,1.94 -6.52,2.91 -9.13,2.91 -1.19,0 -2.2,-0.25 -3.04,-0.75 -0.84,-0.5 -1.26,-1.22 -1.26,-2.16 0,-0.75 0.3,-1.37 0.92,-1.85 0.62,-0.49 1.32,-0.73 2.1,-0.73 0.63,0 1.16,0.05 1.6,0.17 0.44,0.12 0.99,0.31 1.68,0.59 1.47,0.49 2.56,0.73 3.28,0.73 1.19,0 2.24,-0.35 3.18,-1.08 0.95,-0.72 1.71,-1.6 2.3,-2.61 0.72,-1.27 1.26,-2.8 1.62,-4.59 -0.79,0.58 -1.63,1.09 -2.51,1.51 -1.8,0.87 -3.75,1.31 -5.85,1.31 -2.05,0 -3.82,-0.46 -5.32,-1.39 -1.5,-0.93 -2.62,-2.24 -3.36,-3.92 -0.76,-1.68 -1.07,-3.6 -0.93,-5.75 0.08,-1.26 0.3,-2.49 0.65,-3.69 -0.47,1.18 -1.06,2.4 -1.78,3.65 -2.05,3.55 -4.69,6.89 -7.92,10.02 -3.23,3.14 -6.58,5.69 -10.07,7.63 -3.48,1.94 -6.51,2.91 -9.12,2.91 -1.19,0 -2.2,-0.25 -3.04,-0.75 -0.84,-0.5 -1.26,-1.22 -1.26,-2.16 0,-0.75 0.3,-1.37 0.92,-1.85 0.61,-0.49 1.31,-0.73 2.09,-0.73 0.64,0 1.17,0.05 1.61,0.17 0.44,0.12 0.99,0.31 1.68,0.59 1.47,0.49 2.56,0.73 3.27,0.73 1.19,0 2.25,-0.35 3.19,-1.08 0.94,-0.72 1.7,-1.6 2.29,-2.61 1.43,-2.52 2.15,-6.07 2.15,-10.65 0,-1.12 -0.03,-2.3 -0.1,-3.52 -0.07,-1.24 -0.18,-2.5 -0.32,-3.8 -0.13,-1.29 -0.34,-2.48 -0.6,-3.56 -0.31,-1.33 -1.32,-3.18 -2.8,-3.39 -1.7,-0.24 -1.26,1.73 -1.45,3.49 -0.36,3.24 -4.3,3.56 -5.5,1.04 -0.42,-0.87 -0.6,-1.95 -0.76,-2.82 -0.1,-0.69 -0.35,-1.24 -0.74,-1.63 -0.39,-0.4 -1.19,-0.6 -2.42,-0.6 -1.11,0 -2.15,0.29 -3.13,0.85 -0.97,0.56 -1.54,1.29 -1.69,2.2 -0.1,0.61 -0.02,1.2 0.25,1.76 0.27,0.56 0.62,1.08 1.05,1.58 0.44,0.49 1.14,1.19 2.09,2.1 1.8,1.66 3.08,3.05 3.84,4.19 0.75,1.13 0.99,2.53 0.71,4.2 -0.23,1.37 -0.85,2.66 -1.86,3.87 -1.01,1.22 -2.51,2.21 -4.51,2.98 -2,0.76 -4.46,1.14 -7.36,1.14 -4.19,0 -7,-0.75 -8.45,-2.24 -0.72,-0.75 -1.24,-1.48 -1.54,-2.2l-0.88 0.66c-2.6,1.93 -5.59,2.89 -8.98,2.89 -2.35,0 -4.32,-0.67 -5.9,-2 -0.73,-0.61 -1.27,-1.34 -1.62,-2.21 -0.72,0.84 -1.54,1.6 -2.48,2.28 -1.3,0.96 -2.75,1.43 -4.37,1.43 -3.26,0 -4.84,-1.89 -4.75,-5.65 0.01,-0.14 0.02,-0.27 0.03,-0.4 0.01,-0.12 0.02,-0.27 0.02,-0.42 -0.74,1.02 -1.66,2.04 -2.75,3.05 -1.09,1.01 -2.31,1.83 -3.63,2.47 -1.32,0.63 -2.66,0.95 -4.01,0.95 -2.02,0 -3.55,-0.69 -4.58,-2.08 -1.04,-1.38 -1.53,-3.15 -1.49,-5.27 0.06,-2.3 0.54,-4.58 1.44,-6.88 0.89,-2.29 2.08,-4.37 3.58,-6.25 1.49,-1.88 3.21,-3.37 5.15,-4.5 1.95,-1.13 3.95,-1.68 6.02,-1.68 1.58,0 2.76,0.3 3.53,0.91 0.78,0.6 1.44,1.36 2.01,2.27 0.99,-3.24 3.55,-9.83 2.91,-12.1 -0.52,-1.82 -0.2,-1.84 0.1,-2.52l9.71 -4.75 -10.87 35.01c-0.45,1.56 -0.69,2.57 -0.7,3.04 -0.02,0.71 0.28,1.07 0.91,1.07 0.59,0 1.25,-0.39 2,-1.14 0.6,-0.61 1.17,-1.37 1.72,-2.3l0.01 -0.2c0.22,-3.16 1.26,-6.22 3.13,-9.21 1.87,-2.98 4.3,-5.4 7.31,-7.28 3,-1.87 6.21,-2.8 9.6,-2.8 2.72,0 4.63,0.49 5.73,1.45 1.11,0.98 1.6,2.2 1.5,3.69 -0.02,0.28 -0.07,0.57 -0.14,0.88 0.17,-0.28 0.37,-0.56 0.58,-0.85 0.85,-1.13 2.26,-2.14 4.23,-2.99 1.97,-0.86 4.52,-1.28 7.64,-1.28 1.91,0 3.49,0.17 4.75,0.51 1.26,0.34 2.21,0.77 2.83,1.3 0.19,0.16 0.36,0.33 0.51,0.5 0.2,-0.24 0.41,-0.46 0.64,-0.64 1.42,-1.11 2.78,-1.67 4.09,-1.67 2.64,0 4.45,1.43 5.42,4.29 0.97,2.85 1.46,6.27 1.46,10.21 0,3.27 -0.18,5.96 -0.53,8.05 3.11,-3.63 4.8,-5.64 5.04,-6 0.81,-1.2 1.46,-2.35 1.97,-3.48 0.51,-1.13 0.76,-2.24 0.76,-3.34 0,-0.86 -0.3,-2.04 -0.9,-3.54 -0.61,-1.53 -0.92,-2.64 -0.92,-3.33 0,-0.84 0.23,-1.54 0.67,-2.06 0.45,-0.53 0.98,-0.8 1.59,-0.8 0.6,0 1.16,0.19 1.69,0.57 0.54,0.39 0.97,0.95 1.3,1.7 0.33,0.74 0.5,1.63 0.5,2.68 0,1.47 -0.24,3 -0.72,4.6 0.34,-0.83 0.74,-1.64 1.21,-2.43 1.45,-2.45 3.33,-4.39 5.65,-5.84 2.32,-1.46 4.78,-2.18 7.37,-2.18 2.15,0 3.97,0.49 5.47,1.49 1.42,0.95 2.48,2.2 3.17,3.75 0.5,-0.88 1.07,-1.73 1.72,-2.53 1.47,-1.8 3.33,-2.71 5.6,-2.71 1.44,0 2.53,0.45 3.24,1.33 0.71,0.88 1.07,1.81 1.07,2.79 0,0.55 -0.1,1.39 -0.3,2.5 -0.21,1.1 -0.45,2.15 -0.71,3.12l-0.96 3.24c2.29,-4.01 4.46,-7.18 6.48,-9.5 2.03,-2.31 4.27,-3.48 6.73,-3.48 1.43,0 2.47,0.47 3.12,1.4 0.65,0.94 0.97,1.95 0.97,3.05 0,0.66 -0.21,1.93 -0.66,3.8l-2.93 10.97c-0.33,1.37 -0.5,2.31 -0.5,2.86 0,0.22 0.07,0.42 0.19,0.61 0.12,0.17 0.28,0.27 0.48,0.27 0.53,0 1.18,-0.4 1.99,-1.23 0.81,-0.83 1.56,-1.93 2.24,-3.27l0.08 0c-0.13,-0.79 -0.19,-1.62 -0.17,-2.48 0.07,-2.76 0.81,-5.39 2.24,-7.87 1.43,-2.47 3.34,-4.44 5.73,-5.91 2.4,-1.47 4.98,-2.2 7.73,-2.2 2.28,0 4.23,0.5 5.86,1.5 0.94,0.59 1.74,1.28 2.41,2.08l1.16 -2.8 6.62 0 -6.33 15.28c-0.1,0.29 -0.21,0.59 -0.32,0.88 -0.22,0.53 -0.45,1.06 -0.71,1.56l-0.49 1.16c-0.58,1.37 -0.88,2.19 -0.92,2.48 -0.03,0.26 0.02,0.49 0.18,0.69 0.15,0.18 0.34,0.27 0.56,0.27 2.67,-0.15 7.33,-6.12 8.42,-8.8l4.34 -10.66 -3.27 0 1.18 -2.82 3.25 0 3.82 -9.07 7.8 0 -3.8 9.07c5,0 18.47,-1.96 15.23,6.67l-5.17 13.33c-0.35,0.91 -0.53,1.65 -0.53,2.22 0,0.25 0.1,0.5 0.31,0.75 0.22,0.24 0.44,0.36 0.68,0.36 0.67,0 1.35,-0.34 2.05,-1.01 0.71,-0.68 1.6,-1.93 2.66,-3.76l0.06 0c0.32,-1.21 0.86,-2.33 1.62,-3.35 1.14,-1.53 2.72,-3.12 4.75,-4.78 1.63,-1.32 2.85,-2.4 3.67,-3.23 2.27,-2.28 2.41,-3.65 3.27,-6.59 0.64,-2.17 2.75,-1.67 2.81,-0.02 0.34,3.07 6.23,8.73 7.61,9.14l0.03 -0.32c0.09,-1.01 0,-2.16 -0.22,-3.48 -0.23,-1.09 -0.31,-2.08 -0.24,-2.95 0.11,-1.38 0.49,-2.36 1.15,-2.93 0.66,-0.58 1.35,-0.86 2.05,-0.86 0.94,0 1.69,0.44 2.24,1.34 0.54,0.89 0.75,2.08 0.63,3.57 -0.15,1.98 -0.75,4.1 -1.78,6.37 0.22,-0.41 0.46,-0.81 0.71,-1.21 1.87,-2.98 4.3,-5.4 7.31,-7.28 3,-1.87 6.21,-2.8 9.6,-2.8 2.72,0 4.63,0.49 5.73,1.45 1.1,0.98 1.6,2.2 1.5,3.69 -0.06,0.85 -0.37,1.82 -0.93,2.93 -0.57,1.11 -1.56,2.27 -2.94,3.51 -1.38,1.23 -3.32,2.33 -5.81,3.29 -2.48,0.95 -5.57,1.59 -9.25,1.94l-0.71 0.06c-0.22,0.83 -0.35,1.59 -0.4,2.3 -0.33,4.87 7.84,6.33 10.36,2.95 0.62,-0.83 0.36,-2.1 0.34,-3.24 -0.04,-3.44 3.65,-3.98 3.67,-1.41 0.16,1.41 -2.27,4.76 -3.94,6.18 -6.03,5.16 -18.33,5.44 -17.66,-4.36 0.1,-1.54 0.41,-3.07 0.91,-4.57l-0.26 -0.11c-1.19,1.95 -2.61,3.8 -4.25,5.54 -2.2,2.36 -4.63,4.26 -7.28,5.71 -2.63,1.45 -5.2,2.17 -7.71,2.17 -1.19,0 -2.33,-0.22 -3.4,-0.66 -1.09,-0.43 -1.98,-1.16 -2.65,-2.19 -0.25,-0.37 -0.45,-0.79 -0.59,-1.24 -0.31,0.36 -0.65,0.73 -1,1.1 -1.83,1.93 -4.13,2.89 -6.89,2.89 -1.87,0 -3.26,-0.44 -4.18,-1.32 -0.93,-0.88 -1.4,-1.92 -1.4,-3.13 0,-1.22 0.41,-2.93 1.23,-5.12l4.28 -11.22c2.14,-4.42 -4.63,-3.5 -8.47,-3.5l-6.24 15.47c-0.47,1.09 -0.71,1.88 -0.75,2.37 -0.1,1.12 0.59,2.02 1.67,2.34 1.75,0.5 3.38,-0.15 4.54,-1.7 0.62,-0.83 0.36,-2.1 0.34,-3.24 -0.04,-3.44 3.65,-3.98 3.67,-1.41 0.16,1.41 -2.27,4.76 -3.93,6.18 -2.39,2.04 -5.11,3.51 -8.32,3.51 -1.88,0 -3.31,-0.51 -4.27,-1.54 -0.87,-0.92 -1.28,-2.13 -1.25,-3.6 -2.76,2.48 -6.54,5.14 -9.23,5.14 -1.78,0 -2.97,-0.45 -3.57,-1.36l-0.07 0.04c-1.88,0.87 -3.93,1.32 -6.15,1.32 -2.18,0 -4.07,-0.47 -5.71,-1.41 -1.63,-0.94 -2.88,-2.26 -3.75,-3.96l-0.12 -0.26zm105.88 -16.52c0.05,-0.67 -0.14,-1.3 -0.55,-1.87 -0.42,-0.57 -1.01,-0.85 -1.79,-0.85 -1.38,0 -2.66,0.51 -3.89,1.51 -1.21,1 -2.25,2.18 -3.13,3.54 -0.88,1.36 -1.62,2.75 -2.21,4.15 -0.6,1.41 -0.97,2.28 -1.11,2.61 4.03,-0.72 7.11,-1.9 9.25,-3.57 2.15,-1.68 3.29,-3.52 3.43,-5.52zm-30.95 -0.49c-0.11,0.24 -0.24,0.49 -0.38,0.74 -0.71,1.27 -1.61,2.68 -2.72,4.24 -1.88,2.72 -3.2,4.85 -3.96,6.39 -0.75,1.54 -1.18,2.9 -1.28,4.09 -0.1,1.25 0.24,2.17 1,2.73 0.75,0.56 1.63,0.85 2.63,0.85 2.05,0 4.06,-0.77 6.05,-2.31 2,-1.53 3.66,-3.36 4.97,-5.48 0.68,-1.1 1.2,-2.13 1.56,-3.08 -2.41,-2.02 -4.72,-4.75 -6.77,-8.1 -0.08,-0.12 -0.16,-0.24 -0.23,-0.37 -0.16,-0.29 -0.55,-0.4 -0.87,0.3zm-56.26 4.25c0.04,-1.93 -0.3,-3.44 -1.01,-4.53 -0.7,-1.09 -1.77,-1.63 -3.2,-1.63 -1.39,0 -2.65,0.58 -3.77,1.73 -1.12,1.15 -2.06,2.6 -2.82,4.34 -0.76,1.75 -1.35,3.5 -1.76,5.27 -0.41,1.76 -0.62,3.29 -0.65,4.57 -0.04,1.78 0.29,3.23 0.99,4.34 0.69,1.14 1.69,1.7 3.01,1.7 1.48,0 2.78,-0.57 3.94,-1.7 1.15,-1.13 2.13,-2.58 2.9,-4.33 0.77,-1.74 1.35,-3.52 1.74,-5.3 0.39,-1.8 0.6,-3.29 0.63,-4.46zm-113.88 -0.44c-0.58,1.03 -1.51,2.11 -2.79,3.25 -1.38,1.23 -3.32,2.33 -5.8,3.29 -2.49,0.95 -5.58,1.59 -9.27,1.94l-0.7 0.06c-0.22,0.83 -0.35,1.59 -0.4,2.3 -0.1,1.53 0.17,2.63 0.82,3.29 0.64,0.67 1.64,1.01 2.98,1.01 2.31,0 4.62,-1.04 6.91,-3.11 0.24,-0.49 0.59,-0.94 1.05,-1.35 0.78,-0.7 1.71,-1.05 2.79,-1.05 2.16,0 3.18,1.35 3.05,4.06 -0.06,1.15 0.13,2.07 0.54,2.74 0.41,0.66 1.43,1 3.06,1 1.43,0 2.66,-0.35 3.69,-1.05 1.03,-0.7 1.64,-1.6 1.82,-2.69 0.1,-0.58 0.04,-1.14 -0.18,-1.7 -0.21,-0.56 -0.74,-1.25 -1.58,-2.05 -1.49,-1.41 -2.69,-2.64 -3.64,-3.71 -0.94,-1.08 -1.6,-2.12 -2.01,-3.1 -0.41,-0.99 -0.52,-2.04 -0.34,-3.13zm-33.59 -1.43c0.03,-1.32 -0.26,-2.41 -0.89,-3.26 -0.61,-0.85 -1.44,-1.28 -2.47,-1.28 -1.64,0 -3.23,0.89 -4.76,2.66 -1.54,1.78 -2.79,3.9 -3.76,6.37 -0.96,2.48 -1.46,4.69 -1.51,6.61 -0.03,1.36 0.25,2.33 0.85,2.95 0.61,0.61 1.34,0.91 2.19,0.91 1.26,0 2.5,-0.49 3.74,-1.48 1.24,-0.98 2.37,-2.27 3.38,-3.88 0.96,-1.53 1.73,-3.16 2.3,-4.88 0.58,-1.71 0.89,-3.28 0.93,-4.72zm28.48 -1.89c0.05,-0.67 -0.14,-1.3 -0.55,-1.87 -0.41,-0.57 -1.01,-0.85 -1.79,-0.85 -1.37,0 -2.66,0.51 -3.88,1.51 -1.22,1 -2.26,2.18 -3.14,3.54 -0.88,1.36 -1.62,2.75 -2.21,4.15 -0.6,1.41 -0.97,2.28 -1.11,2.61 4.03,-0.72 7.11,-1.9 9.25,-3.57 2.15,-1.68 3.29,-3.52 3.43,-5.52zm66.37 3.66c0.12,-1.91 -0.13,-3.4 -0.76,-4.48 -0.61,-1.07 -1.6,-1.62 -2.94,-1.62 -1.32,0 -2.53,0.58 -3.63,1.72 -1.1,1.14 -2.05,2.57 -2.84,4.29 -0.79,1.73 -1.42,3.46 -1.88,5.21 -0.46,1.74 -0.73,3.26 -0.81,4.52 -0.11,1.75 0.14,3.19 0.74,4.29 0.62,1.12 1.54,1.68 2.78,1.68 1.39,0 2.65,-0.57 3.78,-1.68 1.14,-1.12 2.11,-2.56 2.92,-4.28 0.79,-1.72 1.41,-3.48 1.86,-5.25 0.44,-1.77 0.71,-3.24 0.78,-4.4z"/>
 </g>
</svg>
